<?xml version="1.0" encoding="utf-8"?>
<!-- Generator: Adobe Illustrator 16.0.0, SVG Export Plug-In . SVG Version: 6.00 Build 0)  -->
<!DOCTYPE svg PUBLIC "-//W3C//DTD SVG 1.1//EN" "http://www.w3.org/Graphics/SVG/1.1/DTD/svg11.dtd">
<svg version="1.1" id="Layer_1" xmlns="http://www.w3.org/2000/svg" xmlns:xlink="http://www.w3.org/1999/xlink" x="0px" y="0px"
	 width="114px" height="56.7px" viewBox="0 0 114 56.7" enable-background="new 0 0 114 56.7" xml:space="preserve">
<g enable-background="new    ">
	<g enable-background="new    ">
		<g>
			<g>
				<g>
					<defs>
						<ellipse id="SVGID_1_" cx="-374.1" cy="28.3" rx="0" ry="28.2"/>
					</defs>
					<clipPath id="SVGID_2_">
						<use xlink:href="#SVGID_1_"  overflow="visible"/>
					</clipPath>
					<g clip-path="url(#SVGID_2_)">
						<g>
							<g>
								<g>
									<polyline fill="none" points="-374.1,-41.8 -374.1,-19.4 -374.1,3 -374.1,-19.4 -374.1,-41.8 									"/>
									<polyline fill="none" points="-374.1,5.9 -374.1,28.3 -374.1,50.7 -374.1,28.3 -374.1,5.9 									"/>
									<polyline fill="none" points="-374.1,53.5 -374.1,75.9 -374.1,98.299 -374.1,75.9 -374.1,53.5 									"/>
								</g>
							</g>
						</g>
					</g>
				</g>
			</g>
		</g>
	</g>
	<g enable-background="new    ">
		<g>
			<g>
				<g>
					<defs>
						<path id="SVGID_3_" d="M-374.1,56.4c0,0,0-12.601,0-28.2c0-15.6,0-28.2,0-28.2h912.6c0,0,0,12.6,0,28.2
							c0,15.599,0,28.2,0,28.2C264.8,56.4-100.3,56.4-374.1,56.4z"/>
					</defs>
					<clipPath id="SVGID_4_">
						<use xlink:href="#SVGID_3_"  overflow="visible"/>
					</clipPath>
					<g clip-path="url(#SVGID_4_)">
						<g id="XMLID_1_">
							<g>
								<path fill="#41B883" d="M94.938,30.199h16.3c-5.7,1.9-7.5,5.701-8.5,16.5c-0.7,7.701-4.2,9.701-4.2,9.701
									c-2.6,0-6.787-12.331-7.5-22.9C91.938,31.5,93.138,30.5,94.938,30.199z"/>
								<path fill="#41B883" d="M98.5,56.4H82.2c2.899,0,4.899-5.5,6.1-12.5C88.688,39.225,89.9,35.799,91,33.5
									C93.3,45.299,95.9,56.4,98.5,56.4z"/>
								<path fill="#35495E" d="M91,33.5C89.8,35.7,89,39.2,88.3,43.9c-1.2,7-3.2,12.5-6.1,12.5C79.1,55.7,76.6,43.9,73.3,25.9
									c-0.1-0.6-0.2-1.1-0.3-1.7C75.5,11.2,78.1,0,80.7,0H81.6C84.7,0.7,87.2,12.5,90.5,30.5C90.7,31.6,90.8,32.5,91,33.5z"/>
								<path fill="#41B883" d="M65.3,0.1h15.4c-2.601,0-5.3,11.2-7.7,24.2C69.875,12.475,68,0.1,65.3,0.1z"/>
								<path fill="#41B883" d="M73,24.3c-0.2,1.3-0.5,2.6-0.7,4C68.6,48.5,66.4,55.9,63.8,56.5c-2.899,0-6.8-11.98-8-25.9
									c0-0.2-0.1-0.4-0.1-0.6C55.8,29.4,55.9,28.9,56,28.3C59.7,8,61.9,0.7,64.4,0.1H65.3C68,0.1,70.7,12.1,73,24.3z"/>
								<path fill="#41B883" d="M63.914,56.525H47.615c2.8,0,5.01-12.759,8.1-26.5c0,0.2,0.1,0.399,0.1,0.601
									C58.215,43.525,61.115,56.525,63.914,56.525z"/>
								<path fill="#35495E" d="M55.7,30c-2.6,14-5.4,26.5-8.1,26.5C44.4,55.7,42,43.9,38.6,26c-0.1-0.6-0.2-1.1-0.3-1.7
									c2.5-13,5.1-24.2,7.7-24.2h0.9C50,0.8,52.4,12.4,55.7,30z"/>
								<path fill="#41B883" d="M30.6,0.1H46c-2.6,0-5.2,11.2-7.7,24.2C35,12.1,33.3,0.1,30.6,0.1z"/>
								<path fill="#41B883" d="M38.3,24.3c-0.2,1.3-0.5,2.6-0.7,4C33.9,48.5,31.7,55.9,29.1,56.5c-2.9,0-1.8-0.5-3.6-8.603
									S22.3,35,20.4,32.5c0.3-1.4,0.5-2.801,0.8-4.203C25,8,27.2,0.7,29.7,0.1h0.9C33.3,0.1,36,12.1,38.3,24.3z"/>
								<path fill="#41B883" d="M29.1,56.4H12.8c2.6,0,5.2-11.101,7.7-24c1.8,2.5,3.2,7.3,5.1,15.399C27.4,55.9,26.2,56.4,29.1,56.4
									z"/>
								<path fill="#35495E" d="M20.5,32.4c-2.5,12.899-5.1,24-7.7,24c-0.3-0.399-2.1,0-3.8-10c-1.5-9.2-4.2-15-8.6-16.101h16.3
									C18.3,30.4,19.4,31,20.5,32.4z"/>
							</g>
						</g>
					</g>
				</g>
			</g>
		</g>
	</g>
</g>
<path fill="none" d="M194.8,54.9"/>
<g enable-background="new    ">
	<g enable-background="new    ">
		<g>
			<g>
				<g>
					<defs>
						<ellipse id="SVGID_5_" cx="-374.1" cy="28.2" rx="0" ry="28.2"/>
					</defs>
					<clipPath id="SVGID_6_">
						<use xlink:href="#SVGID_5_"  overflow="visible"/>
					</clipPath>
					<g clip-path="url(#SVGID_6_)">
						<g>
							<g>
								<g>
									<polyline fill="none" points="-374.1,-41.9 -374.1,-19.5 -374.1,2.9 -374.1,-19.5 -374.1,-41.9 									"/>
									<polyline fill="none" points="-374.1,5.8 -374.1,28.2 -374.1,50.6 -374.1,28.2 -374.1,5.8 									"/>
									<polyline fill="none" points="-374.1,53.4 -374.1,75.799 -374.1,98.2 -374.1,75.799 -374.1,53.4 									"/>
								</g>
							</g>
						</g>
					</g>
				</g>
			</g>
		</g>
	</g>
	<g enable-background="new    ">
		<g>
			<g>
				<g>
					<defs>
						<path id="SVGID_7_" d="M-374.1,56.299c0,0,0-12.6,0-28.199c0-15.6,0-28.2,0-28.2h912.6c0,0,0,12.6,0,28.2
							c0,15.6,0,28.199,0,28.199C264.8,56.299-100.3,56.299-374.1,56.299z"/>
					</defs>
					<clipPath id="SVGID_8_">
						<use xlink:href="#SVGID_7_"  overflow="visible"/>
					</clipPath>
				</g>
			</g>
		</g>
	</g>
</g>
</svg>
